<?xml version="1.0" standalone="no"?>
<!DOCTYPE svg PUBLIC "-//W3C//DTD SVG 20010904//EN"
 "http://www.w3.org/TR/2001/REC-SVG-20010904/DTD/svg10.dtd">
<svg version="1.0" xmlns="http://www.w3.org/2000/svg"
 width="206.000000pt" height="180.000000pt" viewBox="0 0 206.000000 180.000000"
 preserveAspectRatio="xMidYMid meet">

<g transform="translate(0.000000,180.000000) scale(0.100000,-0.100000)"
fill="#000000" stroke="none">
<path d="M576 1654 c-3 -9 -6 -49 -6 -89 0 -68 -2 -74 -22 -81 -91 -28 -145
-152 -103 -233 16 -33 68 -79 102 -92 l23 -9 0 -284 c0 -156 3 -291 6 -300 8
-21 40 -21 48 0 3 9 6 143 6 299 l0 284 35 16 c93 45 128 138 86 231 -19 41
-57 75 -98 88 -21 7 -23 13 -23 81 0 86 -6 105 -30 105 -10 0 -21 -7 -24 -16z
m105 -255 c24 -25 29 -40 29 -79 0 -42 -4 -52 -35 -79 -62 -54 -140 -39 -175
34 -17 35 -18 47 -9 76 17 52 55 79 112 79 42 0 53 -5 78 -31z"/>
<path d="M966 1654 c-3 -9 -6 -139 -6 -290 l0 -274 -33 -13 c-42 -18 -93 -77
-102 -117 -18 -80 20 -157 95 -198 35 -18 35 -19 38 -93 3 -99 8 -119 32 -119
24 0 29 20 32 119 l3 74 40 22 c69 38 105 113 91 188 -8 42 -56 100 -101 121
l-35 17 0 274 c0 150 -3 280 -6 289 -3 9 -14 16 -24 16 -10 0 -21 -7 -24 -16z
m107 -664 c40 -45 38 -107 -4 -149 -26 -26 -38 -31 -81 -31 -43 0 -54 4 -79
31 -49 53 -36 142 25 174 47 24 105 13 139 -25z"/>
<path d="M1356 1654 c-3 -9 -6 -76 -6 -150 l0 -134 -39 -19 c-132 -68 -135
-238 -5 -306 l39 -21 5 -234 c3 -129 7 -236 8 -237 8 -10 41 0 46 13 3 9 6
116 6 239 0 223 0 224 23 231 92 28 144 146 102 232 -19 37 -67 80 -101 88
-24 6 -24 6 -24 144 0 151 -3 170 -30 170 -10 0 -21 -7 -24 -16z m104 -380
c21 -20 25 -34 25 -80 0 -49 -4 -59 -28 -80 -22 -19 -39 -24 -82 -24 -47 0
-56 3 -79 31 -38 44 -37 115 2 151 15 14 36 28 47 31 38 8 90 -5 115 -29z"/>
<path d="M923 350 c-31 -12 -39 -54 -18 -86 13 -20 23 -25 48 -22 27 2 33 8
35 31 3 23 0 27 -20 26 -13 0 -17 -3 -10 -6 20 -8 15 -43 -7 -43 -26 0 -43 24
-39 57 2 24 9 29 38 33 27 4 31 7 17 13 -10 4 -19 7 -20 6 -1 0 -12 -4 -24 -9z"/>
<path d="M452 293 l1 -58 6 50 6 50 18 -48 c10 -26 23 -45 28 -42 4 3 14 25
21 48 l13 42 6 -50 6 -50 1 58 c1 31 -2 57 -7 57 -5 0 -17 -19 -26 -42 l-17
-43 -19 43 c-25 59 -39 53 -37 -15z"/>
<path d="M620 345 c0 -2 -9 -27 -20 -55 -11 -27 -16 -50 -11 -50 5 0 11 9 14
20 7 26 43 26 57 -1 7 -11 14 -19 16 -16 7 6 -38 107 -47 107 -5 0 -9 -2 -9
-5z m23 -35 c4 -15 0 -20 -14 -20 -17 0 -18 3 -9 20 6 11 12 20 14 20 2 0 6
-9 9 -20z"/>
<path d="M690 314 c0 -47 16 -74 43 -74 35 0 47 19 45 70 l-1 45 -6 -50 c-5
-45 -8 -50 -31 -50 -23 0 -25 4 -28 48 -4 54 -22 64 -22 11z"/>
<path d="M810 295 c0 -30 5 -55 10 -55 6 0 10 25 10 55 0 30 -4 55 -10 55 -5
0 -10 -25 -10 -55z"/>
<path d="M1040 345 c0 -2 -9 -27 -20 -55 -11 -27 -16 -50 -11 -50 5 0 11 9 14
20 7 26 43 26 57 -1 7 -11 14 -19 16 -16 7 6 -38 107 -47 107 -5 0 -9 -2 -9
-5z m23 -35 c4 -15 0 -20 -14 -20 -17 0 -18 3 -9 20 6 11 12 20 14 20 2 0 6
-9 9 -20z"/>
<path d="M1122 298 l-2 -58 33 1 c29 2 30 2 5 6 -25 4 -27 9 -31 56 l-3 52 -2
-57z"/>
<path d="M1202 298 l-2 -58 33 1 c29 1 30 2 7 8 -21 6 -26 14 -31 56 l-6 50
-1 -57z"/>
<path d="M1280 295 l0 -55 38 1 c30 2 32 3 10 6 -34 5 -41 43 -8 43 11 0 20 5
20 10 0 6 -9 10 -20 10 -30 0 -24 28 8 33 22 3 20 4 -10 6 l-38 1 0 -55z"/>
<path d="M1371 293 c1 -39 3 -50 8 -34 9 34 25 36 41 6 7 -14 18 -25 23 -25 5
0 3 10 -5 23 -11 16 -12 27 -5 38 16 26 1 49 -33 49 l-30 0 1 -57z m54 27 c0
-8 -10 -16 -22 -18 -18 -3 -23 2 -23 18 0 16 5 21 23 18 12 -2 22 -10 22 -18z"/>
<path d="M1475 323 c8 -18 15 -43 15 -58 0 -14 5 -25 10 -25 6 0 10 11 10 25
0 15 7 40 15 58 l16 32 -21 -24 -20 -23 -20 23 -21 24 16 -32z"/>
</g>
</svg>
