<svg width="197" height="168" viewBox="0 0 197 168" fill="none" xmlns="http://www.w3.org/2000/svg">
<rect width="197" height="168" fill="#00AB37"/>
<path d="M57.9205 158.682V167.409H56.8977L52.1421 160.557H52.0568V167.409H51V158.682H52.0227L56.7955 165.551H56.8807V158.682H57.9205ZM64.0238 164.733V160.864H65.0295V167.409H64.0238V166.301H63.9556C63.8022 166.633 63.5636 166.916 63.2397 167.149C62.9159 167.379 62.5068 167.494 62.0124 167.494C61.6034 167.494 61.2397 167.405 60.9215 167.226C60.6034 167.044 60.3534 166.771 60.1715 166.408C59.9897 166.041 59.8988 165.579 59.8988 165.023V160.864H60.9045V164.954C60.9045 165.432 61.038 165.812 61.3051 166.097C61.5749 166.381 61.9187 166.523 62.3363 166.523C62.5863 166.523 62.8406 166.459 63.0991 166.331C63.3605 166.203 63.5792 166.007 63.7553 165.743C63.9343 165.479 64.0238 165.142 64.0238 164.733ZM62.0124 159.977L63.0522 158H64.2284L62.8988 159.977H62.0124ZM66.8715 167.409V160.864H67.8431V161.886H67.9283C68.0646 161.537 68.2848 161.266 68.5888 161.072C68.8928 160.876 69.2578 160.778 69.684 160.778C70.1158 160.778 70.4752 160.876 70.7621 161.072C71.0519 161.266 71.2777 161.537 71.4396 161.886H71.5078C71.6754 161.548 71.9269 161.28 72.2621 161.081C72.5973 160.879 72.9993 160.778 73.4681 160.778C74.0533 160.778 74.532 160.962 74.9041 161.328C75.2763 161.692 75.4624 162.258 75.4624 163.028V167.409H74.4567V163.028C74.4567 162.545 74.3246 162.2 74.0604 161.993C73.7962 161.785 73.4851 161.682 73.1271 161.682C72.6669 161.682 72.3104 161.821 72.0575 162.099C71.8047 162.375 71.6783 162.724 71.6783 163.148V167.409H70.6556V162.926C70.6556 162.554 70.5348 162.254 70.2933 162.027C70.0519 161.797 69.7408 161.682 69.3601 161.682C69.0987 161.682 68.8544 161.751 68.6271 161.891C68.4027 162.03 68.2209 162.223 68.0817 162.47C67.9453 162.714 67.8771 162.997 67.8771 163.318V167.409H66.8715ZM80.0455 167.545C79.4148 167.545 78.8708 167.406 78.4134 167.128C77.9588 166.847 77.608 166.454 77.3608 165.952C77.1165 165.446 76.9943 164.858 76.9943 164.187C76.9943 163.517 77.1165 162.926 77.3608 162.415C77.608 161.9 77.9517 161.5 78.3921 161.213C78.8352 160.923 79.3523 160.778 79.9432 160.778C80.2841 160.778 80.6208 160.835 80.9531 160.949C81.2855 161.062 81.5881 161.247 81.8608 161.503C82.1335 161.756 82.3509 162.091 82.5128 162.508C82.6747 162.926 82.7557 163.44 82.7557 164.051V164.477H77.7102V163.608H81.733C81.733 163.239 81.6591 162.909 81.5114 162.619C81.3665 162.329 81.1591 162.101 80.8892 161.933C80.6222 161.766 80.3068 161.682 79.9432 161.682C79.5426 161.682 79.196 161.781 78.9034 161.98C78.6137 162.176 78.3906 162.432 78.2344 162.747C78.0781 163.062 78 163.4 78 163.761V164.341C78 164.835 78.0852 165.254 78.2557 165.598C78.429 165.939 78.6691 166.199 78.9759 166.378C79.2827 166.554 79.6392 166.642 80.0455 166.642C80.3097 166.642 80.5483 166.605 80.7614 166.531C80.9773 166.454 81.1634 166.341 81.3196 166.19C81.4759 166.037 81.5966 165.846 81.6818 165.619L82.6534 165.892C82.5512 166.221 82.3793 166.511 82.1378 166.761C81.8963 167.008 81.598 167.202 81.2429 167.341C80.8878 167.477 80.4887 167.545 80.0455 167.545ZM84.2855 167.409V160.864H85.2571V161.852H85.3253C85.4446 161.528 85.6605 161.266 85.973 161.064C86.2855 160.862 86.6378 160.761 87.0298 160.761C87.1037 160.761 87.196 160.763 87.3068 160.766C87.4176 160.768 87.5014 160.773 87.5583 160.778V161.801C87.5242 161.793 87.446 161.78 87.3239 161.763C87.2046 161.743 87.0781 161.733 86.9446 161.733C86.6264 161.733 86.3423 161.8 86.0923 161.933C85.8452 162.064 85.6492 162.246 85.5043 162.479C85.3622 162.709 85.2912 162.971 85.2912 163.267V167.409H84.2855ZM91.2102 167.545C90.6193 167.545 90.1009 167.405 89.6548 167.123C89.2117 166.842 88.8651 166.449 88.6151 165.943C88.3679 165.437 88.2443 164.846 88.2443 164.17C88.2443 163.489 88.3679 162.893 88.6151 162.385C88.8651 161.876 89.2117 161.481 89.6548 161.2C90.1009 160.919 90.6193 160.778 91.2102 160.778C91.8012 160.778 92.3182 160.919 92.7614 161.2C93.2074 161.481 93.554 161.876 93.8012 162.385C94.0512 162.893 94.1762 163.489 94.1762 164.17C94.1762 164.846 94.0512 165.437 93.8012 165.943C93.554 166.449 93.2074 166.842 92.7614 167.123C92.3182 167.405 91.8012 167.545 91.2102 167.545ZM91.2102 166.642C91.6591 166.642 92.0284 166.527 92.3182 166.297C92.608 166.067 92.8225 165.764 92.9617 165.389C93.1009 165.014 93.1705 164.608 93.1705 164.17C93.1705 163.733 93.1009 163.325 92.9617 162.947C92.8225 162.57 92.608 162.264 92.3182 162.031C92.0284 161.798 91.6591 161.682 91.2102 161.682C90.7614 161.682 90.3921 161.798 90.1023 162.031C89.8125 162.264 89.598 162.57 89.4588 162.947C89.3196 163.325 89.25 163.733 89.25 164.17C89.25 164.608 89.3196 165.014 89.4588 165.389C89.598 165.764 89.8125 166.067 90.1023 166.297C90.3921 166.527 90.7614 166.642 91.2102 166.642ZM101.558 167.545C101.012 167.545 100.531 167.408 100.113 167.132C99.6957 166.854 99.369 166.462 99.1332 165.956C98.8974 165.447 98.7795 164.847 98.7795 164.153C98.7795 163.466 98.8974 162.869 99.1332 162.364C99.369 161.858 99.6971 161.467 100.118 161.192C100.538 160.916 101.024 160.778 101.575 160.778C102.001 160.778 102.338 160.849 102.585 160.991C102.835 161.131 103.025 161.29 103.156 161.469C103.289 161.645 103.393 161.79 103.467 161.903H103.552V158.682H104.558V167.409H103.586V166.403H103.467C103.393 166.523 103.288 166.673 103.152 166.855C103.015 167.034 102.821 167.195 102.568 167.337C102.315 167.476 101.978 167.545 101.558 167.545ZM101.694 166.642C102.098 166.642 102.439 166.537 102.717 166.327C102.995 166.114 103.207 165.82 103.352 165.445C103.497 165.067 103.569 164.631 103.569 164.136C103.569 163.648 103.498 163.22 103.356 162.854C103.214 162.484 103.004 162.197 102.726 161.993C102.447 161.785 102.103 161.682 101.694 161.682C101.268 161.682 100.913 161.791 100.629 162.01C100.348 162.226 100.136 162.52 99.994 162.892C99.8548 163.261 99.7852 163.676 99.7852 164.136C99.7852 164.602 99.8562 165.025 99.9982 165.406C100.143 165.784 100.356 166.085 100.637 166.31C100.921 166.531 101.274 166.642 101.694 166.642ZM108.466 167.562C108.051 167.562 107.674 167.484 107.336 167.328C106.998 167.169 106.73 166.94 106.531 166.642C106.332 166.341 106.233 165.977 106.233 165.551C106.233 165.176 106.306 164.872 106.454 164.639C106.602 164.403 106.799 164.219 107.047 164.085C107.294 163.952 107.566 163.852 107.865 163.787C108.166 163.719 108.468 163.665 108.772 163.625C109.17 163.574 109.492 163.535 109.74 163.51C109.99 163.481 110.171 163.435 110.285 163.369C110.401 163.304 110.46 163.19 110.46 163.028V162.994C110.46 162.574 110.345 162.247 110.115 162.014C109.887 161.781 109.542 161.665 109.079 161.665C108.599 161.665 108.223 161.77 107.95 161.98C107.677 162.19 107.486 162.415 107.375 162.653L106.42 162.312C106.591 161.915 106.818 161.605 107.102 161.383C107.389 161.159 107.701 161.003 108.039 160.915C108.38 160.824 108.716 160.778 109.045 160.778C109.255 160.778 109.497 160.804 109.769 160.855C110.045 160.903 110.311 161.004 110.566 161.158C110.825 161.311 111.039 161.543 111.21 161.852C111.38 162.162 111.465 162.577 111.465 163.097V167.409H110.46V166.523H110.409C110.34 166.665 110.227 166.817 110.068 166.979C109.909 167.141 109.697 167.278 109.433 167.392C109.168 167.506 108.846 167.562 108.466 167.562ZM108.619 166.659C109.017 166.659 109.352 166.581 109.624 166.425C109.9 166.268 110.107 166.067 110.247 165.82C110.389 165.572 110.46 165.312 110.46 165.04V164.119C110.417 164.17 110.323 164.217 110.178 164.26C110.036 164.3 109.872 164.335 109.684 164.366C109.499 164.395 109.319 164.42 109.143 164.443C108.97 164.463 108.829 164.48 108.721 164.494C108.46 164.528 108.216 164.584 107.988 164.66C107.764 164.734 107.582 164.846 107.443 164.997C107.307 165.145 107.238 165.346 107.238 165.602C107.238 165.952 107.368 166.216 107.626 166.395C107.887 166.571 108.218 166.659 108.619 166.659ZM121.312 162.329L120.409 162.585C120.352 162.435 120.268 162.288 120.157 162.146C120.05 162.001 119.902 161.882 119.714 161.788C119.527 161.695 119.287 161.648 118.994 161.648C118.594 161.648 118.26 161.74 117.993 161.925C117.729 162.106 117.596 162.338 117.596 162.619C117.596 162.869 117.687 163.067 117.869 163.212C118.051 163.356 118.335 163.477 118.721 163.574L119.693 163.812C120.278 163.954 120.714 164.172 121.001 164.464C121.288 164.754 121.432 165.128 121.432 165.585C121.432 165.96 121.324 166.295 121.108 166.591C120.895 166.886 120.596 167.119 120.213 167.29C119.829 167.46 119.383 167.545 118.875 167.545C118.207 167.545 117.655 167.4 117.217 167.111C116.78 166.821 116.503 166.398 116.386 165.841L117.341 165.602C117.432 165.954 117.604 166.219 117.856 166.395C118.112 166.571 118.446 166.659 118.858 166.659C119.327 166.659 119.699 166.56 119.974 166.361C120.253 166.159 120.392 165.918 120.392 165.636C120.392 165.409 120.312 165.219 120.153 165.065C119.994 164.909 119.75 164.793 119.42 164.716L118.329 164.46C117.73 164.318 117.29 164.098 117.008 163.8C116.73 163.498 116.591 163.122 116.591 162.67C116.591 162.301 116.694 161.974 116.902 161.69C117.112 161.406 117.398 161.183 117.758 161.021C118.122 160.859 118.534 160.778 118.994 160.778C119.642 160.778 120.15 160.92 120.52 161.204C120.892 161.489 121.156 161.864 121.312 162.329ZM125.605 167.545C125.014 167.545 124.495 167.405 124.049 167.123C123.606 166.842 123.259 166.449 123.009 165.943C122.762 165.437 122.639 164.846 122.639 164.17C122.639 163.489 122.762 162.893 123.009 162.385C123.259 161.876 123.606 161.481 124.049 161.2C124.495 160.919 125.014 160.778 125.605 160.778C126.195 160.778 126.713 160.919 127.156 161.2C127.602 161.481 127.948 161.876 128.195 162.385C128.445 162.893 128.57 163.489 128.57 164.17C128.57 164.846 128.445 165.437 128.195 165.943C127.948 166.449 127.602 166.842 127.156 167.123C126.713 167.405 126.195 167.545 125.605 167.545ZM125.605 166.642C126.053 166.642 126.423 166.527 126.713 166.297C127.002 166.067 127.217 165.764 127.356 165.389C127.495 165.014 127.565 164.608 127.565 164.17C127.565 163.733 127.495 163.325 127.356 162.947C127.217 162.57 127.002 162.264 126.713 162.031C126.423 161.798 126.053 161.682 125.605 161.682C125.156 161.682 124.786 161.798 124.497 162.031C124.207 162.264 123.992 162.57 123.853 162.947C123.714 163.325 123.644 163.733 123.644 164.17C123.644 164.608 123.714 165.014 123.853 165.389C123.992 165.764 124.207 166.067 124.497 166.297C124.786 166.527 125.156 166.642 125.605 166.642ZM130.106 167.409V160.864H131.077V161.852H131.145C131.265 161.528 131.481 161.266 131.793 161.064C132.106 160.862 132.458 160.761 132.85 160.761C132.924 160.761 133.016 160.763 133.127 160.766C133.238 160.768 133.322 160.773 133.378 160.778V161.801C133.344 161.793 133.266 161.78 133.144 161.763C133.025 161.743 132.898 161.733 132.765 161.733C132.447 161.733 132.162 161.8 131.912 161.933C131.665 162.064 131.469 162.246 131.324 162.479C131.182 162.709 131.111 162.971 131.111 163.267V167.409H130.106ZM137.827 160.864V161.716H134.435V160.864H137.827ZM135.424 159.295H136.43V165.534C136.43 165.818 136.471 166.031 136.553 166.173C136.638 166.312 136.746 166.406 136.877 166.454C137.01 166.5 137.151 166.523 137.299 166.523C137.41 166.523 137.501 166.517 137.572 166.506C137.643 166.491 137.699 166.48 137.742 166.471L137.947 167.375C137.878 167.4 137.783 167.426 137.661 167.452C137.539 167.48 137.384 167.494 137.197 167.494C136.912 167.494 136.634 167.433 136.361 167.311C136.091 167.189 135.867 167.003 135.688 166.753C135.512 166.503 135.424 166.187 135.424 165.807V159.295ZM142.014 167.545C141.383 167.545 140.839 167.406 140.382 167.128C139.927 166.847 139.577 166.454 139.329 165.952C139.085 165.446 138.963 164.858 138.963 164.187C138.963 163.517 139.085 162.926 139.329 162.415C139.577 161.9 139.92 161.5 140.361 161.213C140.804 160.923 141.321 160.778 141.912 160.778C142.253 160.778 142.589 160.835 142.922 160.949C143.254 161.062 143.557 161.247 143.829 161.503C144.102 161.756 144.319 162.091 144.481 162.508C144.643 162.926 144.724 163.44 144.724 164.051V164.477H139.679V163.608H143.702C143.702 163.239 143.628 162.909 143.48 162.619C143.335 162.329 143.128 162.101 142.858 161.933C142.591 161.766 142.275 161.682 141.912 161.682C141.511 161.682 141.165 161.781 140.872 161.98C140.582 162.176 140.359 162.432 140.203 162.747C140.047 163.062 139.969 163.4 139.969 163.761V164.341C139.969 164.835 140.054 165.254 140.224 165.598C140.398 165.939 140.638 166.199 140.944 166.378C141.251 166.554 141.608 166.642 142.014 166.642C142.278 166.642 142.517 166.605 142.73 166.531C142.946 166.454 143.132 166.341 143.288 166.19C143.444 166.037 143.565 165.846 143.65 165.619L144.622 165.892C144.52 166.221 144.348 166.511 144.106 166.761C143.865 167.008 143.567 167.202 143.211 167.341C142.856 167.477 142.457 167.545 142.014 167.545Z" fill="white"/>
<path fill-rule="evenodd" clip-rule="evenodd" d="M121.777 68.0358C110.257 65.8091 101.457 63.6891 99.5241 63.2091L99.5108 63.0625L99.4974 63.0225C101.524 62.5958 111.471 60.7025 122.257 61.6891C141.724 63.4758 139.471 37.2358 123.964 41.7958C129.604 27.0091 107.791 21.0758 104.044 40.4491C101.804 52.0491 99.6574 60.8758 99.2041 62.7292C99.1641 62.7158 99.1241 62.7158 99.0841 62.7158L99.0308 62.7292C98.6174 60.7158 96.7108 50.7692 97.6974 39.9692C99.4841 20.5025 73.2441 22.7558 77.8041 38.2624C63.0041 32.6224 57.0841 54.4224 76.4574 58.1691C88.0441 60.4224 96.8708 62.5558 98.7374 63.0091C98.7241 63.0491 98.7108 63.1025 98.7241 63.1425V63.1958C96.6708 63.6225 86.7374 65.5158 75.9641 64.5291C56.5108 62.7425 58.7508 88.9824 74.2574 84.4224C68.6174 99.2091 90.4308 105.129 94.1774 85.7558C96.1641 75.5558 98.0574 67.4891 98.7908 64.4358C99.0974 70.4491 98.4841 76.4758 97.2441 82.3424C95.9241 88.6491 93.9374 94.8091 91.8574 100.942C89.6841 107.036 87.6841 113.423 86.8574 120.009C85.9641 126.596 86.1108 133.382 87.4041 139.969V139.982L87.4174 140.049C87.6574 141.076 88.6841 141.716 89.7108 141.476C90.7508 141.223 91.3908 140.196 91.1508 139.169C89.7108 133.036 89.3108 126.676 89.9241 120.369C90.2174 117.209 90.7508 114.062 91.4841 110.956C92.2041 107.836 93.1508 104.782 94.0841 101.649C95.9374 95.4091 97.6974 89.1025 98.7774 82.6358C99.6574 77.4625 100.057 72.1958 99.8174 66.9558C100.457 71.2225 101.231 78.5158 100.524 86.2491C98.7374 105.702 124.991 103.463 120.431 87.9558C135.217 93.5958 141.151 71.7825 121.777 68.0358Z" fill="white"/>
</svg>
